<svg xmlns="http://www.w3.org/2000/svg" xmlns:xlink="http://www.w3.org/1999/xlink" width="40" zoomAndPan="magnify" viewBox="0 0 30 30.000001" height="40" preserveAspectRatio="xMidYMid meet" version="1.0"><defs><g/><clipPath id="70635b8bf0"><path d="M 0.484375 0 L 29.515625 0 L 29.515625 29.03125 L 0.484375 29.03125 Z M 0.484375 0 " clip-rule="nonzero"/></clipPath><clipPath id="8925a60998"><path d="M 8 0 L 29.515625 0 L 29.515625 29.03125 L 8 29.03125 Z M 8 0 " clip-rule="nonzero"/></clipPath><clipPath id="d9ad5565cc"><rect x="0" width="22" y="0" height="30"/></clipPath><clipPath id="e6324d5a86"><path d="M 0.484375 0 L 24 0 L 24 29.03125 L 0.484375 29.03125 Z M 0.484375 0 " clip-rule="nonzero"/></clipPath><clipPath id="e0aa1de20a"><path d="M -9.414062 2.148438 L 1.910156 -5.730469 L 23.066406 24.671875 L 11.738281 32.554688 Z M -9.414062 2.148438 " clip-rule="nonzero"/></clipPath><clipPath id="269991d274"><path d="M 0.484375 0 L 23.246094 0 L 23.246094 29.03125 L 0.484375 29.03125 Z M 0.484375 0 " clip-rule="nonzero"/></clipPath><clipPath id="6cd01fae25"><path d="M -9.414062 2.148438 L 1.910156 -5.730469 L 23.066406 24.671875 L 11.738281 32.554688 Z M -9.414062 2.148438 " clip-rule="nonzero"/></clipPath><clipPath id="a516255b71"><rect x="0" width="24" y="0" height="30"/></clipPath><clipPath id="290686fdb9"><path d="M 2 0 L 26 0 L 26 29.03125 L 2 29.03125 Z M 2 0 " clip-rule="nonzero"/></clipPath><clipPath id="09d85ea0ae"><rect x="0" width="24" y="0" height="30"/></clipPath><clipPath id="dce4b208d1"><rect x="0" width="30" y="0" height="30"/></clipPath></defs><g clip-path="url(#70635b8bf0)"><path fill="#ffffff" d="M 0.484375 0 L 29.515625 0 L 29.515625 29.03125 L 0.484375 29.03125 Z M 0.484375 0 " fill-opacity="1" fill-rule="nonzero"/><path fill="#ffffff" d="M 0.484375 0 L 29.515625 0 L 29.515625 29.03125 L 0.484375 29.03125 Z M 0.484375 0 " fill-opacity="1" fill-rule="nonzero"/><g transform="matrix(1, 0, 0, 1, 0, 0.000000000000005692)"><g clip-path="url(#dce4b208d1)"><g clip-path="url(#8925a60998)"><g transform="matrix(1, 0, 0, 1, 8, 0.000000000000005692)"><g clip-path="url(#d9ad5565cc)"><g fill="#000000" fill-opacity="1"><g transform="translate(0.908095, 22.780574)"><g><path d="M 10.53125 -18.1875 C 12.300781 -18.1875 13.828125 -18.097656 15.109375 -17.921875 C 16.390625 -17.742188 17.367188 -17.554688 18.046875 -17.359375 C 18.734375 -17.171875 19.078125 -17.078125 19.078125 -17.078125 L 19.078125 -12.1875 C 19.078125 -12.1875 18.988281 -12.3125 18.8125 -12.5625 C 18.644531 -12.820312 18.304688 -13.117188 17.796875 -13.453125 C 17.285156 -13.785156 16.523438 -14.066406 15.515625 -14.296875 C 14.796875 -14.441406 13.972656 -14.570312 13.046875 -14.6875 C 12.128906 -14.800781 11.140625 -14.859375 10.078125 -14.859375 C 8.535156 -14.859375 7.46875 -14.722656 6.875 -14.453125 C 6.28125 -14.191406 5.984375 -13.738281 5.984375 -13.09375 C 5.984375 -12.5625 6.179688 -12.179688 6.578125 -11.953125 C 6.972656 -11.722656 7.492188 -11.546875 8.140625 -11.421875 L 14.234375 -10.453125 C 16.148438 -10.160156 17.539062 -9.597656 18.40625 -8.765625 C 19.269531 -7.929688 19.703125 -6.773438 19.703125 -5.296875 C 19.703125 -4.140625 19.425781 -3.144531 18.875 -2.3125 C 18.320312 -1.488281 17.410156 -0.851562 16.140625 -0.40625 C 14.867188 0.03125 13.160156 0.25 11.015625 0.25 C 8.929688 0.25 7.171875 0.15625 5.734375 -0.03125 C 4.304688 -0.21875 3.226562 -0.40625 2.5 -0.59375 C 1.78125 -0.78125 1.421875 -0.875 1.421875 -0.875 L 1.453125 -5.6875 C 1.453125 -5.6875 1.566406 -5.550781 1.796875 -5.28125 C 2.023438 -5.019531 2.414062 -4.722656 2.96875 -4.390625 C 3.53125 -4.066406 4.304688 -3.800781 5.296875 -3.59375 C 6.035156 -3.457031 6.894531 -3.335938 7.875 -3.234375 C 8.851562 -3.128906 9.945312 -3.078125 11.15625 -3.078125 C 12.582031 -3.078125 13.613281 -3.25 14.25 -3.59375 C 14.882812 -3.945312 15.203125 -4.484375 15.203125 -5.203125 C 15.203125 -5.722656 15.03125 -6.117188 14.6875 -6.390625 C 14.34375 -6.660156 13.789062 -6.875 13.03125 -7.03125 L 6.859375 -8 C 5.015625 -8.257812 3.644531 -8.789062 2.75 -9.59375 C 1.863281 -10.40625 1.421875 -11.5625 1.421875 -13.0625 C 1.421875 -14.238281 1.71875 -15.203125 2.3125 -15.953125 C 2.914062 -16.703125 3.882812 -17.257812 5.21875 -17.625 C 6.5625 -18 8.332031 -18.1875 10.53125 -18.1875 Z M 10.53125 -18.1875 "/></g></g></g></g></g></g><g clip-path="url(#e6324d5a86)"><g clip-path="url(#e0aa1de20a)"><g transform="matrix(1, 0, 0, 1, 0, 0.000000000000005692)"><g clip-path="url(#a516255b71)"><g clip-path="url(#269991d274)"><g clip-path="url(#6cd01fae25)"><path fill="#ffffff" d="M -9.414062 2.148438 L 1.910156 -5.730469 L 23.058594 24.664062 L 11.734375 32.542969 Z M -9.414062 2.148438 " fill-opacity="1" fill-rule="nonzero"/></g></g></g></g></g></g><g clip-path="url(#290686fdb9)"><g transform="matrix(1, 0, 0, 1, 2, 0.000000000000005692)"><g clip-path="url(#09d85ea0ae)"><g fill="#000000" fill-opacity="1"><g transform="translate(0.318544, 26.273037)"><g><path d="M 0.890625 0 C 1.378906 -0.164062 1.765625 -0.347656 2.046875 -0.546875 C 2.328125 -0.742188 2.523438 -1.03125 2.640625 -1.40625 C 2.765625 -1.78125 2.828125 -2.316406 2.828125 -3.015625 L 2.828125 -13.0625 C 2.828125 -13.75 2.765625 -14.28125 2.640625 -14.65625 C 2.523438 -15.03125 2.328125 -15.316406 2.046875 -15.515625 C 1.765625 -15.722656 1.378906 -15.90625 0.890625 -16.0625 L 7.90625 -16.0625 L 16.296875 -4.40625 L 16.296875 -13.0625 C 16.296875 -13.75 16.234375 -14.28125 16.109375 -14.65625 C 15.992188 -15.03125 15.796875 -15.316406 15.515625 -15.515625 C 15.234375 -15.722656 14.847656 -15.90625 14.359375 -16.0625 L 22.28125 -16.0625 C 21.789062 -15.90625 21.398438 -15.722656 21.109375 -15.515625 C 20.828125 -15.316406 20.625 -15.03125 20.5 -14.65625 C 20.382812 -14.28125 20.328125 -13.75 20.328125 -13.0625 L 20.328125 -3.015625 C 20.328125 -2.316406 20.382812 -1.78125 20.5 -1.40625 C 20.625 -1.03125 20.828125 -0.742188 21.109375 -0.546875 C 21.398438 -0.347656 21.789062 -0.164062 22.28125 0 L 15.09375 0 L 6.859375 -11.453125 L 6.859375 -3.015625 C 6.859375 -2.316406 6.914062 -1.78125 7.03125 -1.40625 C 7.15625 -1.03125 7.359375 -0.742188 7.640625 -0.546875 C 7.929688 -0.347656 8.328125 -0.164062 8.828125 0 Z M 0.890625 0 "/></g></g></g></g></g></g></g></g></g></svg>