<svg xmlns="http://www.w3.org/2000/svg" xmlns:xlink="http://www.w3.org/1999/xlink" width="200" zoomAndPan="magnify" viewBox="0 0 150 74.999997" height="100" preserveAspectRatio="xMidYMid meet" version="1.0"><defs><g/><clipPath id="64d61404a3"><rect x="0" width="40" y="0" height="75"/></clipPath><clipPath id="bab8d027b4"><path d="M 0 1 L 51 1 L 51 70 L 0 70 Z M 0 1 " clip-rule="nonzero"/></clipPath><clipPath id="b1bfe25b45"><path d="M -4.980469 13.277344 L 11.621094 1.726562 L 50.601562 57.75 L 34 69.300781 Z M -4.980469 13.277344 " clip-rule="nonzero"/></clipPath><clipPath id="0c0e34ab01"><path d="M 0 0.679688 L 50.640625 0.679688 L 50.640625 68.359375 L 0 68.359375 Z M 0 0.679688 " clip-rule="nonzero"/></clipPath><clipPath id="439ff5c341"><path d="M -4.980469 12.277344 L 11.621094 0.726562 L 50.601562 56.75 L 34 68.300781 Z M -4.980469 12.277344 " clip-rule="nonzero"/></clipPath><clipPath id="5548c4139a"><rect x="0" width="51" y="0" height="69"/></clipPath><clipPath id="b2aba5469c"><rect x="0" width="44" y="0" height="73"/></clipPath><clipPath id="c8b3ee2758"><path d="M 44.238281 31.332031 L 47.988281 31.332031 L 47.988281 54.417969 L 44.238281 54.417969 Z M 44.238281 31.332031 " clip-rule="nonzero"/></clipPath><clipPath id="25a20c8358"><path d="M 46.113281 31.332031 C 46.609375 31.332031 47.085938 31.53125 47.4375 31.882812 C 47.789062 32.234375 47.988281 32.710938 47.988281 33.207031 L 47.988281 52.53125 C 47.988281 53.027344 47.789062 53.503906 47.4375 53.855469 C 47.085938 54.207031 46.609375 54.40625 46.113281 54.40625 C 45.617188 54.40625 45.136719 54.207031 44.785156 53.855469 C 44.433594 53.503906 44.238281 53.027344 44.238281 52.53125 L 44.238281 33.207031 C 44.238281 32.710938 44.433594 32.234375 44.785156 31.882812 C 45.136719 31.53125 45.617188 31.332031 46.113281 31.332031 Z M 46.113281 31.332031 " clip-rule="nonzero"/></clipPath><clipPath id="1d1d123178"><path d="M 0.238281 0.332031 L 3.988281 0.332031 L 3.988281 23.417969 L 0.238281 23.417969 Z M 0.238281 0.332031 " clip-rule="nonzero"/></clipPath><clipPath id="389e124b78"><path d="M 2.113281 0.332031 C 2.609375 0.332031 3.085938 0.53125 3.4375 0.882812 C 3.789062 1.234375 3.988281 1.710938 3.988281 2.207031 L 3.988281 21.53125 C 3.988281 22.027344 3.789062 22.503906 3.4375 22.855469 C 3.085938 23.207031 2.609375 23.40625 2.113281 23.40625 C 1.617188 23.40625 1.136719 23.207031 0.785156 22.855469 C 0.433594 22.503906 0.238281 22.027344 0.238281 21.53125 L 0.238281 2.207031 C 0.238281 1.710938 0.433594 1.234375 0.785156 0.882812 C 1.136719 0.53125 1.617188 0.332031 2.113281 0.332031 Z M 2.113281 0.332031 " clip-rule="nonzero"/></clipPath><clipPath id="fd7a983458"><rect x="0" width="4" y="0" height="24"/></clipPath><clipPath id="0e3a059843"><path d="M 35.109375 34.792969 L 38.898438 34.792969 L 38.898438 46.722656 L 35.109375 46.722656 Z M 35.109375 34.792969 " clip-rule="nonzero"/></clipPath><clipPath id="a8e29d1750"><path d="M 37.847656 35.546875 L 38.875 44.617188 C 38.9375 45.148438 38.765625 45.683594 38.410156 46.085938 C 38.050781 46.484375 37.539062 46.714844 37.003906 46.714844 C 36.46875 46.714844 35.957031 46.484375 35.597656 46.085938 C 35.242188 45.683594 35.070312 45.148438 35.132812 44.617188 L 36.160156 35.546875 C 36.207031 35.117188 36.570312 34.792969 37.003906 34.792969 C 37.433594 34.792969 37.796875 35.117188 37.847656 35.546875 Z M 37.847656 35.546875 " clip-rule="nonzero"/></clipPath><clipPath id="9cf86c87c9"><path d="M 0.109375 0.792969 L 3.898438 0.792969 L 3.898438 12.722656 L 0.109375 12.722656 Z M 0.109375 0.792969 " clip-rule="nonzero"/></clipPath><clipPath id="cd1fefd9c4"><path d="M 2.847656 1.546875 L 3.875 10.617188 C 3.9375 11.148438 3.765625 11.683594 3.410156 12.085938 C 3.050781 12.484375 2.539062 12.714844 2.003906 12.714844 C 1.46875 12.714844 0.957031 12.484375 0.597656 12.085938 C 0.242188 11.683594 0.0703125 11.148438 0.132812 10.617188 L 1.160156 1.546875 C 1.207031 1.117188 1.570312 0.792969 2.003906 0.792969 C 2.433594 0.792969 2.796875 1.117188 2.847656 1.546875 Z M 2.847656 1.546875 " clip-rule="nonzero"/></clipPath><clipPath id="e8cae77897"><rect x="0" width="4" y="0" height="13"/></clipPath><clipPath id="ca1bcbe73f"><path d="M 35.367188 26.453125 L 39.117188 26.453125 L 39.117188 49.273438 L 35.367188 49.273438 Z M 35.367188 26.453125 " clip-rule="nonzero"/></clipPath><clipPath id="d2e6093391"><path d="M 37.242188 26.453125 C 37.738281 26.453125 38.214844 26.648438 38.566406 27 C 38.917969 27.351562 39.117188 27.828125 39.117188 28.328125 L 39.117188 47.390625 C 39.117188 47.886719 38.917969 48.363281 38.566406 48.714844 C 38.214844 49.066406 37.738281 49.265625 37.242188 49.265625 C 36.746094 49.265625 36.269531 49.066406 35.917969 48.714844 C 35.566406 48.363281 35.367188 47.886719 35.367188 47.390625 L 35.367188 28.328125 C 35.367188 27.828125 35.566406 27.351562 35.917969 27 C 36.269531 26.648438 36.746094 26.453125 37.242188 26.453125 Z M 37.242188 26.453125 " clip-rule="nonzero"/></clipPath><clipPath id="4fef87df8e"><path d="M 0.367188 0.453125 L 4.117188 0.453125 L 4.117188 23.273438 L 0.367188 23.273438 Z M 0.367188 0.453125 " clip-rule="nonzero"/></clipPath><clipPath id="aef3f1ead7"><path d="M 2.242188 0.453125 C 2.738281 0.453125 3.214844 0.648438 3.566406 1 C 3.917969 1.351562 4.117188 1.828125 4.117188 2.328125 L 4.117188 21.390625 C 4.117188 21.886719 3.917969 22.363281 3.566406 22.714844 C 3.214844 23.066406 2.738281 23.265625 2.242188 23.265625 C 1.746094 23.265625 1.269531 23.066406 0.917969 22.714844 C 0.566406 22.363281 0.367188 21.886719 0.367188 21.390625 L 0.367188 2.328125 C 0.367188 1.828125 0.566406 1.351562 0.917969 1 C 1.269531 0.648438 1.746094 0.453125 2.242188 0.453125 Z M 2.242188 0.453125 " clip-rule="nonzero"/></clipPath><clipPath id="ea0b41c713"><rect x="0" width="5" y="0" height="24"/></clipPath><clipPath id="bf3d78341a"><path d="M 0.199219 1 L 3 1 L 3 5 L 0.199219 5 Z M 0.199219 1 " clip-rule="nonzero"/></clipPath><clipPath id="77f2380c1f"><rect x="0" width="43" y="0" height="6"/></clipPath></defs><rect x="-15" width="180" fill="#ffffff" y="-7.5" height="89.999996" fill-opacity="1"/><rect x="-15" width="180" fill="#ffffff" y="-7.5" height="89.999996" fill-opacity="1"/><g transform="matrix(1, 0, 0, 1, 24, -0.000000000000001893)"><g clip-path="url(#64d61404a3)"><g fill="#000000" fill-opacity="1"><g transform="translate(1.007057, 52.763388)"><g><path d="M 19.40625 -33.515625 C 22.65625 -33.515625 25.457031 -33.347656 27.8125 -33.015625 C 30.175781 -32.679688 31.988281 -32.335938 33.25 -31.984375 C 34.507812 -31.640625 35.140625 -31.46875 35.140625 -31.46875 L 35.140625 -22.453125 C 35.140625 -22.453125 34.984375 -22.6875 34.671875 -23.15625 C 34.359375 -23.625 33.726562 -24.164062 32.78125 -24.78125 C 31.832031 -25.394531 30.4375 -25.910156 28.59375 -26.328125 C 27.257812 -26.609375 25.742188 -26.851562 24.046875 -27.0625 C 22.347656 -27.269531 20.519531 -27.375 18.5625 -27.375 C 15.726562 -27.375 13.757812 -27.128906 12.65625 -26.640625 C 11.5625 -26.148438 11.015625 -25.3125 11.015625 -24.125 C 11.015625 -23.144531 11.378906 -22.445312 12.109375 -22.03125 C 12.847656 -21.613281 13.8125 -21.28125 15 -21.03125 L 26.21875 -19.25 C 29.757812 -18.726562 32.320312 -17.695312 33.90625 -16.15625 C 35.5 -14.613281 36.296875 -12.476562 36.296875 -9.75 C 36.296875 -7.625 35.785156 -5.800781 34.765625 -4.28125 C 33.753906 -2.757812 32.078125 -1.585938 29.734375 -0.765625 C 27.390625 0.0546875 24.242188 0.46875 20.296875 0.46875 C 16.453125 0.46875 13.207031 0.296875 10.5625 -0.046875 C 7.925781 -0.398438 5.941406 -0.75 4.609375 -1.09375 C 3.285156 -1.445312 2.625 -1.625 2.625 -1.625 L 2.671875 -10.484375 C 2.671875 -10.484375 2.878906 -10.238281 3.296875 -9.75 C 3.722656 -9.257812 4.453125 -8.707031 5.484375 -8.09375 C 6.515625 -7.488281 7.9375 -6.992188 9.75 -6.609375 C 11.113281 -6.359375 12.695312 -6.140625 14.5 -5.953125 C 16.300781 -5.765625 18.320312 -5.671875 20.5625 -5.671875 C 23.1875 -5.671875 25.082031 -5.992188 26.25 -6.640625 C 27.425781 -7.285156 28.015625 -8.269531 28.015625 -9.59375 C 28.015625 -10.539062 27.695312 -11.265625 27.0625 -11.765625 C 26.4375 -12.273438 25.425781 -12.671875 24.03125 -12.953125 L 12.640625 -14.734375 C 9.242188 -15.222656 6.722656 -16.210938 5.078125 -17.703125 C 3.441406 -19.191406 2.625 -21.316406 2.625 -24.078125 C 2.625 -26.242188 3.171875 -28.015625 4.265625 -29.390625 C 5.367188 -30.773438 7.15625 -31.804688 9.625 -32.484375 C 12.09375 -33.171875 15.351562 -33.515625 19.40625 -33.515625 Z M 19.40625 -33.515625 "/></g></g></g></g></g><g clip-path="url(#bab8d027b4)"><g clip-path="url(#b1bfe25b45)"><g transform="matrix(1, 0, 0, 1, 0, 1)"><g clip-path="url(#5548c4139a)"><g clip-path="url(#0c0e34ab01)"><g clip-path="url(#439ff5c341)"><path fill="#ffffff" d="M -4.980469 12.277344 L 11.621094 0.726562 L 50.605469 56.753906 L 34.003906 68.304688 Z M -4.980469 12.277344 " fill-opacity="1" fill-rule="nonzero"/></g></g></g></g></g></g><g transform="matrix(1, 0, 0, 1, 6, 2)"><g clip-path="url(#b2aba5469c)"><g fill="#000000" fill-opacity="1"><g transform="translate(0.773677, 55.642293)"><g><path d="M 1.640625 0 C 2.546875 -0.3125 3.257812 -0.644531 3.78125 -1 C 4.300781 -1.363281 4.671875 -1.890625 4.890625 -2.578125 C 5.109375 -3.265625 5.21875 -4.253906 5.21875 -5.546875 L 5.21875 -24.046875 C 5.21875 -25.328125 5.109375 -26.3125 4.890625 -27 C 4.671875 -27.695312 4.300781 -28.234375 3.78125 -28.609375 C 3.257812 -28.984375 2.546875 -29.3125 1.640625 -29.59375 L 14.5625 -29.59375 L 30.015625 -8.125 L 30.015625 -24.046875 C 30.015625 -25.328125 29.90625 -26.3125 29.6875 -27 C 29.46875 -27.695312 29.097656 -28.234375 28.578125 -28.609375 C 28.066406 -28.984375 27.351562 -29.3125 26.4375 -29.59375 L 41.046875 -29.59375 C 40.140625 -29.3125 39.421875 -28.984375 38.890625 -28.609375 C 38.359375 -28.234375 37.984375 -27.695312 37.765625 -27 C 37.546875 -26.3125 37.4375 -25.328125 37.4375 -24.046875 L 37.4375 -5.546875 C 37.4375 -4.253906 37.546875 -3.265625 37.765625 -2.578125 C 37.984375 -1.890625 38.359375 -1.363281 38.890625 -1 C 39.421875 -0.644531 40.140625 -0.3125 41.046875 0 L 27.8125 0 L 12.640625 -21.09375 L 12.640625 -5.546875 C 12.640625 -4.253906 12.75 -3.265625 12.96875 -2.578125 C 13.1875 -1.890625 13.5625 -1.363281 14.09375 -1 C 14.625 -0.644531 15.34375 -0.3125 16.25 0 Z M 1.640625 0 "/></g></g></g></g></g><g clip-path="url(#c8b3ee2758)"><g clip-path="url(#25a20c8358)"><g transform="matrix(1, 0, 0, 1, 44, 31)"><g clip-path="url(#fd7a983458)"><g clip-path="url(#1d1d123178)"><g clip-path="url(#389e124b78)"><path fill="#ffffff" d="M 0.238281 0.332031 L 3.988281 0.332031 L 3.988281 23.402344 L 0.238281 23.402344 Z M 0.238281 0.332031 " fill-opacity="1" fill-rule="nonzero"/></g></g></g></g></g></g><g clip-path="url(#0e3a059843)"><g clip-path="url(#a8e29d1750)"><g transform="matrix(1, 0, 0, 1, 35, 34)"><g clip-path="url(#e8cae77897)"><g clip-path="url(#9cf86c87c9)"><g clip-path="url(#cd1fefd9c4)"><path fill="#ffffff" d="M -0.105469 -5.898438 L 4.113281 -5.898438 L 4.113281 12.742188 L -0.105469 12.742188 Z M -0.105469 -5.898438 " fill-opacity="1" fill-rule="nonzero"/></g></g></g></g></g></g><g clip-path="url(#ca1bcbe73f)"><g clip-path="url(#d2e6093391)"><g transform="matrix(1, 0, 0, 1, 35, 26)"><g clip-path="url(#ea0b41c713)"><g clip-path="url(#4fef87df8e)"><g clip-path="url(#aef3f1ead7)"><path fill="#ffffff" d="M 0.367188 0.453125 L 4.117188 0.453125 L 4.117188 23.257812 L 0.367188 23.257812 Z M 0.367188 0.453125 " fill-opacity="1" fill-rule="nonzero"/></g></g></g></g></g></g><g fill="#000000" fill-opacity="1"><g transform="translate(64.814962, 36.749996)"><g><path d="M 2.28125 0 L 1.296875 0 L 1.296875 -8.59375 L 2.53125 -8.59375 L 6.71875 -2.03125 L 6.875 -2.046875 L 6.875 -8.59375 L 7.859375 -8.59375 L 7.859375 0 L 6.796875 0 L 2.4375 -7.015625 L 2.28125 -7 Z M 2.28125 0 "/></g></g></g><g fill="#000000" fill-opacity="1"><g transform="translate(79.213425, 36.749996)"><g><path d="M 7.734375 0 L 6.65625 0 L 5.859375 -2.359375 L 2.203125 -2.359375 L 1.390625 0 L 0.34375 0 L 3.34375 -8.59375 L 4.734375 -8.59375 Z M 3.953125 -7.546875 L 2.484375 -3.203125 L 5.5625 -3.203125 L 4.09375 -7.546875 Z M 3.953125 -7.546875 "/></g></g></g><g fill="#000000" fill-opacity="1"><g transform="translate(92.524722, 36.749996)"><g><path d="M 6.359375 0 L 0.46875 0 L 0.46875 -0.90625 L 5.1875 -7.625 L 5.140625 -7.75 L 0.640625 -7.75 L 0.640625 -8.59375 L 6.328125 -8.59375 L 6.328125 -7.6875 L 1.609375 -0.953125 L 1.640625 -0.828125 L 6.359375 -0.828125 Z M 6.359375 0 "/></g></g></g><g fill="#000000" fill-opacity="1"><g transform="translate(104.584322, 36.749996)"><g><path d="M 1.296875 0 L 1.296875 -8.59375 L 4.421875 -8.59375 C 4.992188 -8.59375 5.472656 -8.492188 5.859375 -8.296875 C 6.253906 -8.109375 6.550781 -7.84375 6.75 -7.5 C 6.945312 -7.15625 7.046875 -6.742188 7.046875 -6.265625 C 7.046875 -5.734375 6.910156 -5.289062 6.640625 -4.9375 C 6.378906 -4.59375 5.96875 -4.335938 5.40625 -4.171875 L 5.40625 -4.046875 C 5.675781 -3.941406 5.898438 -3.769531 6.078125 -3.53125 C 6.253906 -3.289062 6.414062 -2.941406 6.5625 -2.484375 L 7.359375 0 L 6.328125 0 L 5.46875 -2.625 C 5.363281 -2.9375 5.242188 -3.179688 5.109375 -3.359375 C 4.972656 -3.535156 4.800781 -3.660156 4.59375 -3.734375 C 4.394531 -3.816406 4.140625 -3.859375 3.828125 -3.859375 L 2.3125 -3.859375 L 2.3125 0 Z M 4.390625 -4.71875 C 4.929688 -4.71875 5.332031 -4.835938 5.59375 -5.078125 C 5.851562 -5.328125 5.984375 -5.707031 5.984375 -6.21875 C 5.984375 -6.726562 5.851562 -7.109375 5.59375 -7.359375 C 5.332031 -7.609375 4.929688 -7.734375 4.390625 -7.734375 L 2.3125 -7.734375 L 2.3125 -4.71875 Z M 4.390625 -4.71875 "/></g></g></g><g fill="#000000" fill-opacity="1"><g transform="translate(117.778088, 36.749996)"><g><path d="M 7.734375 0 L 6.65625 0 L 5.859375 -2.359375 L 2.203125 -2.359375 L 1.390625 0 L 0.34375 0 L 3.34375 -8.59375 L 4.734375 -8.59375 Z M 3.953125 -7.546875 L 2.484375 -3.203125 L 5.5625 -3.203125 L 4.09375 -7.546875 Z M 3.953125 -7.546875 "/></g></g></g><g fill="#000000" fill-opacity="1"><g transform="translate(64.814962, 46.499995)"><g><path d="M 3.75 0.125 C 3.207031 0.125 2.722656 0.0507812 2.296875 -0.09375 C 1.867188 -0.238281 1.507812 -0.429688 1.21875 -0.671875 C 0.9375 -0.910156 0.726562 -1.175781 0.59375 -1.46875 L 1.140625 -2.125 L 1.28125 -2.125 C 1.8125 -1.226562 2.632812 -0.78125 3.75 -0.78125 C 4.394531 -0.78125 4.875 -0.914062 5.1875 -1.1875 C 5.507812 -1.457031 5.671875 -1.835938 5.671875 -2.328125 C 5.671875 -2.609375 5.617188 -2.84375 5.515625 -3.03125 C 5.410156 -3.226562 5.238281 -3.394531 5 -3.53125 C 4.757812 -3.675781 4.4375 -3.800781 4.03125 -3.90625 L 3.015625 -4.140625 C 2.265625 -4.328125 1.710938 -4.613281 1.359375 -5 C 1.003906 -5.394531 0.828125 -5.894531 0.828125 -6.5 C 0.828125 -6.925781 0.9375 -7.304688 1.15625 -7.640625 C 1.375 -7.972656 1.695312 -8.234375 2.125 -8.421875 C 2.550781 -8.617188 3.054688 -8.71875 3.640625 -8.71875 C 4.285156 -8.71875 4.828125 -8.625 5.265625 -8.4375 C 5.710938 -8.257812 6.070312 -7.988281 6.34375 -7.625 L 5.84375 -6.953125 L 5.703125 -6.953125 C 5.453125 -7.253906 5.160156 -7.472656 4.828125 -7.609375 C 4.492188 -7.753906 4.097656 -7.828125 3.640625 -7.828125 C 3.046875 -7.828125 2.597656 -7.710938 2.296875 -7.484375 C 1.992188 -7.253906 1.84375 -6.9375 1.84375 -6.53125 C 1.84375 -6.132812 1.953125 -5.820312 2.171875 -5.59375 C 2.398438 -5.363281 2.773438 -5.1875 3.296875 -5.0625 L 4.328125 -4.828125 C 5.160156 -4.628906 5.765625 -4.328125 6.140625 -3.921875 C 6.515625 -3.515625 6.703125 -3 6.703125 -2.375 C 6.703125 -1.882812 6.59375 -1.453125 6.375 -1.078125 C 6.15625 -0.703125 5.820312 -0.40625 5.375 -0.1875 C 4.9375 0.0195312 4.394531 0.125 3.75 0.125 Z M 3.75 0.125 "/></g></g></g><g fill="#000000" fill-opacity="1"><g transform="translate(77.415203, 46.499995)"><g><path d="M 6.703125 -8.59375 L 6.703125 -7.734375 L 4.015625 -7.734375 L 4.015625 0 L 3.015625 0 L 3.015625 -7.734375 L 0.3125 -7.734375 L 0.3125 -8.59375 Z M 6.703125 -8.59375 "/></g></g></g><g fill="#000000" fill-opacity="1"><g transform="translate(89.668723, 46.499995)"><g><path d="M 4.71875 0.125 C 3.96875 0.125 3.300781 -0.0351562 2.71875 -0.359375 C 2.144531 -0.679688 1.691406 -1.171875 1.359375 -1.828125 C 1.023438 -2.484375 0.859375 -3.304688 0.859375 -4.296875 C 0.859375 -5.273438 1.023438 -6.09375 1.359375 -6.75 C 1.691406 -7.414062 2.144531 -7.910156 2.71875 -8.234375 C 3.300781 -8.554688 3.96875 -8.71875 4.71875 -8.71875 C 5.457031 -8.71875 6.113281 -8.554688 6.6875 -8.234375 C 7.269531 -7.910156 7.726562 -7.414062 8.0625 -6.75 C 8.394531 -6.09375 8.5625 -5.273438 8.5625 -4.296875 C 8.5625 -3.304688 8.394531 -2.484375 8.0625 -1.828125 C 7.726562 -1.171875 7.269531 -0.679688 6.6875 -0.359375 C 6.113281 -0.0351562 5.457031 0.125 4.71875 0.125 Z M 4.71875 -0.8125 C 5.601562 -0.8125 6.285156 -1.085938 6.765625 -1.640625 C 7.242188 -2.203125 7.484375 -3.085938 7.484375 -4.296875 C 7.484375 -5.503906 7.242188 -6.382812 6.765625 -6.9375 C 6.285156 -7.5 5.601562 -7.78125 4.71875 -7.78125 C 2.863281 -7.78125 1.9375 -6.617188 1.9375 -4.296875 C 1.9375 -1.972656 2.863281 -0.8125 4.71875 -0.8125 Z M 4.71875 -0.8125 "/></g></g></g><g fill="#000000" fill-opacity="1"><g transform="translate(104.331624, 46.499995)"><g><path d="M 1.296875 0 L 1.296875 -8.59375 L 4.421875 -8.59375 C 4.992188 -8.59375 5.472656 -8.492188 5.859375 -8.296875 C 6.253906 -8.109375 6.550781 -7.84375 6.75 -7.5 C 6.945312 -7.15625 7.046875 -6.742188 7.046875 -6.265625 C 7.046875 -5.734375 6.910156 -5.289062 6.640625 -4.9375 C 6.378906 -4.59375 5.96875 -4.335938 5.40625 -4.171875 L 5.40625 -4.046875 C 5.675781 -3.941406 5.898438 -3.769531 6.078125 -3.53125 C 6.253906 -3.289062 6.414062 -2.941406 6.5625 -2.484375 L 7.359375 0 L 6.328125 0 L 5.46875 -2.625 C 5.363281 -2.9375 5.242188 -3.179688 5.109375 -3.359375 C 4.972656 -3.535156 4.800781 -3.660156 4.59375 -3.734375 C 4.394531 -3.816406 4.140625 -3.859375 3.828125 -3.859375 L 2.3125 -3.859375 L 2.3125 0 Z M 4.390625 -4.71875 C 4.929688 -4.71875 5.332031 -4.835938 5.59375 -5.078125 C 5.851562 -5.328125 5.984375 -5.707031 5.984375 -6.21875 C 5.984375 -6.726562 5.851562 -7.109375 5.59375 -7.359375 C 5.332031 -7.609375 4.929688 -7.734375 4.390625 -7.734375 L 2.3125 -7.734375 L 2.3125 -4.71875 Z M 4.390625 -4.71875 "/></g></g></g><g fill="#000000" fill-opacity="1"><g transform="translate(117.525391, 46.499995)"><g><path d="M 2.3125 -4.046875 L 2.3125 -0.828125 L 6.6875 -0.828125 L 6.6875 0 L 1.296875 0 L 1.296875 -8.59375 L 6.59375 -8.59375 L 6.59375 -7.75 L 2.3125 -7.75 L 2.3125 -4.875 L 6.09375 -4.875 L 6.09375 -4.046875 Z M 2.3125 -4.046875 "/></g></g></g><g transform="matrix(1, 0, 0, 1, 7, 57)"><g clip-path="url(#77f2380c1f)"><g clip-path="url(#bf3d78341a)"><g fill="#000000" fill-opacity="1"><g transform="translate(0.351901, 4.05783)"><g><path d="M 1.921875 -2.453125 L 1.921875 -2.203125 L 1.140625 -2.203125 L 1.140625 0 L 0.859375 0 L 0.859375 -2.203125 L 0.09375 -2.203125 L 0.09375 -2.453125 Z M 1.921875 -2.453125 "/></g></g></g></g><g fill="#000000" fill-opacity="1"><g transform="translate(2.351254, 4.05783)"><g><path d="M 1.9375 -1.453125 L 1.9375 -2.453125 L 2.21875 -2.453125 L 2.21875 0 L 1.9375 0 L 1.9375 -1.21875 L 0.65625 -1.21875 L 0.65625 0 L 0.375 0 L 0.375 -2.453125 L 0.65625 -2.453125 L 0.65625 -1.453125 Z M 1.9375 -1.453125 "/></g></g></g><g fill="#000000" fill-opacity="1"><g transform="translate(4.940032, 4.05783)"><g><path d="M 0.65625 -1.15625 L 0.65625 -0.234375 L 1.90625 -0.234375 L 1.90625 0 L 0.375 0 L 0.375 -2.453125 L 1.890625 -2.453125 L 1.890625 -2.21875 L 0.65625 -2.21875 L 0.65625 -1.390625 L 1.734375 -1.390625 L 1.734375 -1.15625 Z M 0.65625 -1.15625 "/></g></g></g><g fill="#000000" fill-opacity="1"><g transform="translate(7.00804, 4.05783)"><g/></g></g><g fill="#000000" fill-opacity="1"><g transform="translate(7.848639, 4.05783)"><g><path d="M 1.078125 0 L 0.6875 0 L 0.125 -2.453125 L 0.421875 -2.453125 L 0.875 -0.421875 L 0.921875 -0.421875 L 1.46875 -2.453125 L 1.734375 -2.453125 L 2.296875 -0.421875 L 2.328125 -0.421875 L 2.796875 -2.453125 L 3.078125 -2.453125 L 2.515625 0 L 2.125 0 L 1.625 -1.859375 L 1.578125 -1.859375 Z M 1.078125 0 "/></g></g></g><g fill="#000000" fill-opacity="1"><g transform="translate(11.045261, 4.05783)"><g><path d="M 1.34375 0.03125 C 1.132812 0.03125 0.945312 -0.0078125 0.78125 -0.09375 C 0.613281 -0.1875 0.484375 -0.328125 0.390625 -0.515625 C 0.296875 -0.710938 0.25 -0.953125 0.25 -1.234375 C 0.25 -1.503906 0.296875 -1.734375 0.390625 -1.921875 C 0.484375 -2.117188 0.613281 -2.257812 0.78125 -2.34375 C 0.945312 -2.4375 1.132812 -2.484375 1.34375 -2.484375 C 1.5625 -2.484375 1.75 -2.4375 1.90625 -2.34375 C 2.070312 -2.257812 2.203125 -2.117188 2.296875 -1.921875 C 2.398438 -1.734375 2.453125 -1.503906 2.453125 -1.234375 C 2.453125 -0.953125 2.398438 -0.710938 2.296875 -0.515625 C 2.203125 -0.328125 2.070312 -0.1875 1.90625 -0.09375 C 1.75 -0.0078125 1.5625 0.03125 1.34375 0.03125 Z M 1.34375 -0.234375 C 1.601562 -0.234375 1.800781 -0.3125 1.9375 -0.46875 C 2.070312 -0.625 2.140625 -0.878906 2.140625 -1.234375 C 2.140625 -1.578125 2.070312 -1.828125 1.9375 -1.984375 C 1.800781 -2.140625 1.601562 -2.21875 1.34375 -2.21875 C 0.8125 -2.21875 0.546875 -1.890625 0.546875 -1.234375 C 0.546875 -0.566406 0.8125 -0.234375 1.34375 -0.234375 Z M 1.34375 -0.234375 "/></g></g></g><g fill="#000000" fill-opacity="1"><g transform="translate(13.731159, 4.05783)"><g><path d="M 0.375 0 L 0.375 -2.453125 L 1.265625 -2.453125 C 1.429688 -2.453125 1.566406 -2.425781 1.671875 -2.375 C 1.785156 -2.320312 1.867188 -2.242188 1.921875 -2.140625 C 1.984375 -2.046875 2.015625 -1.929688 2.015625 -1.796875 C 2.015625 -1.640625 1.972656 -1.507812 1.890625 -1.40625 C 1.816406 -1.3125 1.703125 -1.238281 1.546875 -1.1875 L 1.546875 -1.15625 C 1.617188 -1.125 1.679688 -1.070312 1.734375 -1 C 1.785156 -0.9375 1.832031 -0.835938 1.875 -0.703125 L 2.109375 0 L 1.8125 0 L 1.5625 -0.75 C 1.53125 -0.84375 1.492188 -0.910156 1.453125 -0.953125 C 1.421875 -1.003906 1.375 -1.039062 1.3125 -1.0625 C 1.257812 -1.082031 1.1875 -1.09375 1.09375 -1.09375 L 0.65625 -1.09375 L 0.65625 0 Z M 1.25 -1.34375 C 1.40625 -1.34375 1.519531 -1.378906 1.59375 -1.453125 C 1.664062 -1.523438 1.703125 -1.632812 1.703125 -1.78125 C 1.703125 -1.925781 1.664062 -2.03125 1.59375 -2.09375 C 1.519531 -2.164062 1.40625 -2.203125 1.25 -2.203125 L 0.65625 -2.203125 L 0.65625 -1.34375 Z M 1.25 -1.34375 "/></g></g></g><g fill="#000000" fill-opacity="1"><g transform="translate(15.998432, 4.05783)"><g><path d="M 0.65625 -2.453125 L 0.65625 -0.234375 L 1.84375 -0.234375 L 1.84375 0 L 0.375 0 L 0.375 -2.453125 Z M 0.65625 -2.453125 "/></g></g></g><g fill="#000000" fill-opacity="1"><g transform="translate(17.939179, 4.05783)"><g><path d="M 1.171875 -2.453125 C 1.410156 -2.453125 1.617188 -2.40625 1.796875 -2.3125 C 1.984375 -2.226562 2.125 -2.09375 2.21875 -1.90625 C 2.3125 -1.726562 2.359375 -1.503906 2.359375 -1.234375 C 2.359375 -0.953125 2.3125 -0.71875 2.21875 -0.53125 C 2.125 -0.351562 1.984375 -0.21875 1.796875 -0.125 C 1.617188 -0.0390625 1.410156 0 1.171875 0 L 0.375 0 L 0.375 -2.453125 Z M 1.140625 -0.25 C 1.335938 -0.25 1.503906 -0.28125 1.640625 -0.34375 C 1.773438 -0.40625 1.875 -0.507812 1.9375 -0.65625 C 2.007812 -0.800781 2.046875 -0.992188 2.046875 -1.234375 C 2.046875 -1.472656 2.007812 -1.660156 1.9375 -1.796875 C 1.875 -1.941406 1.773438 -2.046875 1.640625 -2.109375 C 1.503906 -2.171875 1.335938 -2.203125 1.140625 -2.203125 L 0.65625 -2.203125 L 0.65625 -0.25 Z M 1.140625 -0.25 "/></g></g></g><g fill="#000000" fill-opacity="1"><g transform="translate(20.541352, 4.05783)"><g/></g></g><g fill="#000000" fill-opacity="1"><g transform="translate(21.381951, 4.05783)"><g><path d="M 1.34375 0.03125 C 1.132812 0.03125 0.945312 -0.0078125 0.78125 -0.09375 C 0.613281 -0.1875 0.484375 -0.328125 0.390625 -0.515625 C 0.296875 -0.710938 0.25 -0.953125 0.25 -1.234375 C 0.25 -1.503906 0.296875 -1.734375 0.390625 -1.921875 C 0.484375 -2.117188 0.613281 -2.257812 0.78125 -2.34375 C 0.945312 -2.4375 1.132812 -2.484375 1.34375 -2.484375 C 1.5625 -2.484375 1.75 -2.4375 1.90625 -2.34375 C 2.070312 -2.257812 2.203125 -2.117188 2.296875 -1.921875 C 2.398438 -1.734375 2.453125 -1.503906 2.453125 -1.234375 C 2.453125 -0.953125 2.398438 -0.710938 2.296875 -0.515625 C 2.203125 -0.328125 2.070312 -0.1875 1.90625 -0.09375 C 1.75 -0.0078125 1.5625 0.03125 1.34375 0.03125 Z M 1.34375 -0.234375 C 1.601562 -0.234375 1.800781 -0.3125 1.9375 -0.46875 C 2.070312 -0.625 2.140625 -0.878906 2.140625 -1.234375 C 2.140625 -1.578125 2.070312 -1.828125 1.9375 -1.984375 C 1.800781 -2.140625 1.601562 -2.21875 1.34375 -2.21875 C 0.8125 -2.21875 0.546875 -1.890625 0.546875 -1.234375 C 0.546875 -0.566406 0.8125 -0.234375 1.34375 -0.234375 Z M 1.34375 -0.234375 "/></g></g></g><g fill="#000000" fill-opacity="1"><g transform="translate(24.067849, 4.05783)"><g><path d="M 1.8125 -2.453125 L 1.8125 -2.21875 L 0.65625 -2.21875 L 0.65625 -1.328125 L 1.703125 -1.328125 L 1.703125 -1.078125 L 0.65625 -1.078125 L 0.65625 0 L 0.375 0 L 0.375 -2.453125 Z M 1.8125 -2.453125 "/></g></g></g><g fill="#000000" fill-opacity="1"><g transform="translate(26.008597, 4.05783)"><g/></g></g><g fill="#000000" fill-opacity="1"><g transform="translate(26.849195, 4.05783)"><g><path d="M 1.296875 0.03125 C 1.085938 0.03125 0.90625 -0.015625 0.75 -0.109375 C 0.59375 -0.203125 0.46875 -0.34375 0.375 -0.53125 C 0.289062 -0.71875 0.25 -0.953125 0.25 -1.234375 C 0.25 -1.503906 0.296875 -1.734375 0.390625 -1.921875 C 0.484375 -2.109375 0.613281 -2.25 0.78125 -2.34375 C 0.945312 -2.4375 1.140625 -2.484375 1.359375 -2.484375 C 1.597656 -2.484375 1.789062 -2.441406 1.9375 -2.359375 C 2.09375 -2.273438 2.203125 -2.148438 2.265625 -1.984375 L 2.078125 -1.875 L 2.03125 -1.875 C 1.96875 -2 1.878906 -2.085938 1.765625 -2.140625 C 1.660156 -2.203125 1.523438 -2.234375 1.359375 -2.234375 C 0.816406 -2.234375 0.546875 -1.898438 0.546875 -1.234375 C 0.546875 -0.878906 0.613281 -0.617188 0.75 -0.453125 C 0.882812 -0.296875 1.078125 -0.21875 1.328125 -0.21875 C 1.546875 -0.21875 1.710938 -0.269531 1.828125 -0.375 C 1.941406 -0.476562 2 -0.640625 2 -0.859375 L 2 -1.078125 L 1.296875 -1.078125 L 1.296875 -1.3125 L 2.28125 -1.3125 L 2.28125 0 L 2.015625 0 L 2.015625 -0.328125 L 1.96875 -0.34375 C 1.90625 -0.207031 1.816406 -0.109375 1.703125 -0.046875 C 1.585938 0.00390625 1.453125 0.03125 1.296875 0.03125 Z M 1.296875 0.03125 "/></g></g></g><g fill="#000000" fill-opacity="1"><g transform="translate(29.394435, 4.05783)"><g><path d="M 0.65625 -2.453125 L 0.65625 -0.234375 L 1.84375 -0.234375 L 1.84375 0 L 0.375 0 L 0.375 -2.453125 Z M 0.65625 -2.453125 "/></g></g></g><g fill="#000000" fill-opacity="1"><g transform="translate(31.335182, 4.05783)"><g><path d="M 2.203125 0 L 1.90625 0 L 1.671875 -0.671875 L 0.625 -0.671875 L 0.40625 0 L 0.09375 0 L 0.953125 -2.453125 L 1.359375 -2.453125 Z M 1.125 -2.15625 L 0.703125 -0.921875 L 1.59375 -0.921875 L 1.171875 -2.15625 Z M 1.125 -2.15625 "/></g></g></g><g fill="#000000" fill-opacity="1"><g transform="translate(33.635943, 4.05783)"><g><path d="M 1.078125 0.03125 C 0.921875 0.03125 0.78125 0.0078125 0.65625 -0.03125 C 0.53125 -0.0703125 0.425781 -0.125 0.34375 -0.1875 C 0.269531 -0.257812 0.210938 -0.335938 0.171875 -0.421875 L 0.328125 -0.609375 L 0.375 -0.609375 C 0.519531 -0.347656 0.753906 -0.21875 1.078125 -0.21875 C 1.253906 -0.21875 1.390625 -0.253906 1.484375 -0.328125 C 1.578125 -0.410156 1.625 -0.519531 1.625 -0.65625 C 1.625 -0.738281 1.609375 -0.804688 1.578125 -0.859375 C 1.546875 -0.921875 1.492188 -0.972656 1.421875 -1.015625 C 1.359375 -1.054688 1.269531 -1.085938 1.15625 -1.109375 L 0.859375 -1.1875 C 0.648438 -1.238281 0.492188 -1.316406 0.390625 -1.421875 C 0.285156 -1.535156 0.234375 -1.679688 0.234375 -1.859375 C 0.234375 -1.984375 0.265625 -2.09375 0.328125 -2.1875 C 0.390625 -2.28125 0.476562 -2.351562 0.59375 -2.40625 C 0.71875 -2.457031 0.867188 -2.484375 1.046875 -2.484375 C 1.222656 -2.484375 1.375 -2.457031 1.5 -2.40625 C 1.632812 -2.351562 1.738281 -2.273438 1.8125 -2.171875 L 1.671875 -1.984375 L 1.625 -1.984375 C 1.5625 -2.066406 1.476562 -2.128906 1.375 -2.171875 C 1.28125 -2.210938 1.171875 -2.234375 1.046875 -2.234375 C 0.867188 -2.234375 0.738281 -2.203125 0.65625 -2.140625 C 0.570312 -2.078125 0.53125 -1.984375 0.53125 -1.859375 C 0.53125 -1.753906 0.5625 -1.664062 0.625 -1.59375 C 0.6875 -1.53125 0.789062 -1.484375 0.9375 -1.453125 L 1.234375 -1.375 C 1.472656 -1.320312 1.644531 -1.238281 1.75 -1.125 C 1.863281 -1.007812 1.921875 -0.859375 1.921875 -0.671875 C 1.921875 -0.535156 1.890625 -0.410156 1.828125 -0.296875 C 1.765625 -0.191406 1.664062 -0.109375 1.53125 -0.046875 C 1.40625 0.00390625 1.253906 0.03125 1.078125 0.03125 Z M 1.078125 0.03125 "/></g></g></g><g fill="#000000" fill-opacity="1"><g transform="translate(35.734094, 4.05783)"><g><path d="M 1.078125 0.03125 C 0.921875 0.03125 0.78125 0.0078125 0.65625 -0.03125 C 0.53125 -0.0703125 0.425781 -0.125 0.34375 -0.1875 C 0.269531 -0.257812 0.210938 -0.335938 0.171875 -0.421875 L 0.328125 -0.609375 L 0.375 -0.609375 C 0.519531 -0.347656 0.753906 -0.21875 1.078125 -0.21875 C 1.253906 -0.21875 1.390625 -0.253906 1.484375 -0.328125 C 1.578125 -0.410156 1.625 -0.519531 1.625 -0.65625 C 1.625 -0.738281 1.609375 -0.804688 1.578125 -0.859375 C 1.546875 -0.921875 1.492188 -0.972656 1.421875 -1.015625 C 1.359375 -1.054688 1.269531 -1.085938 1.15625 -1.109375 L 0.859375 -1.1875 C 0.648438 -1.238281 0.492188 -1.316406 0.390625 -1.421875 C 0.285156 -1.535156 0.234375 -1.679688 0.234375 -1.859375 C 0.234375 -1.984375 0.265625 -2.09375 0.328125 -2.1875 C 0.390625 -2.28125 0.476562 -2.351562 0.59375 -2.40625 C 0.71875 -2.457031 0.867188 -2.484375 1.046875 -2.484375 C 1.222656 -2.484375 1.375 -2.457031 1.5 -2.40625 C 1.632812 -2.351562 1.738281 -2.273438 1.8125 -2.171875 L 1.671875 -1.984375 L 1.625 -1.984375 C 1.5625 -2.066406 1.476562 -2.128906 1.375 -2.171875 C 1.28125 -2.210938 1.171875 -2.234375 1.046875 -2.234375 C 0.867188 -2.234375 0.738281 -2.203125 0.65625 -2.140625 C 0.570312 -2.078125 0.53125 -1.984375 0.53125 -1.859375 C 0.53125 -1.753906 0.5625 -1.664062 0.625 -1.59375 C 0.6875 -1.53125 0.789062 -1.484375 0.9375 -1.453125 L 1.234375 -1.375 C 1.472656 -1.320312 1.644531 -1.238281 1.75 -1.125 C 1.863281 -1.007812 1.921875 -0.859375 1.921875 -0.671875 C 1.921875 -0.535156 1.890625 -0.410156 1.828125 -0.296875 C 1.765625 -0.191406 1.664062 -0.109375 1.53125 -0.046875 C 1.40625 0.00390625 1.253906 0.03125 1.078125 0.03125 Z M 1.078125 0.03125 "/></g></g></g><g fill="#000000" fill-opacity="1"><g transform="translate(37.832245, 4.05783)"><g><path d="M 0.65625 -1.15625 L 0.65625 -0.234375 L 1.90625 -0.234375 L 1.90625 0 L 0.375 0 L 0.375 -2.453125 L 1.890625 -2.453125 L 1.890625 -2.21875 L 0.65625 -2.21875 L 0.65625 -1.390625 L 1.734375 -1.390625 L 1.734375 -1.15625 Z M 0.65625 -1.15625 "/></g></g></g><g fill="#000000" fill-opacity="1"><g transform="translate(39.900251, 4.05783)"><g><path d="M 1.078125 0.03125 C 0.921875 0.03125 0.78125 0.0078125 0.65625 -0.03125 C 0.53125 -0.0703125 0.425781 -0.125 0.34375 -0.1875 C 0.269531 -0.257812 0.210938 -0.335938 0.171875 -0.421875 L 0.328125 -0.609375 L 0.375 -0.609375 C 0.519531 -0.347656 0.753906 -0.21875 1.078125 -0.21875 C 1.253906 -0.21875 1.390625 -0.253906 1.484375 -0.328125 C 1.578125 -0.410156 1.625 -0.519531 1.625 -0.65625 C 1.625 -0.738281 1.609375 -0.804688 1.578125 -0.859375 C 1.546875 -0.921875 1.492188 -0.972656 1.421875 -1.015625 C 1.359375 -1.054688 1.269531 -1.085938 1.15625 -1.109375 L 0.859375 -1.1875 C 0.648438 -1.238281 0.492188 -1.316406 0.390625 -1.421875 C 0.285156 -1.535156 0.234375 -1.679688 0.234375 -1.859375 C 0.234375 -1.984375 0.265625 -2.09375 0.328125 -2.1875 C 0.390625 -2.28125 0.476562 -2.351562 0.59375 -2.40625 C 0.71875 -2.457031 0.867188 -2.484375 1.046875 -2.484375 C 1.222656 -2.484375 1.375 -2.457031 1.5 -2.40625 C 1.632812 -2.351562 1.738281 -2.273438 1.8125 -2.171875 L 1.671875 -1.984375 L 1.625 -1.984375 C 1.5625 -2.066406 1.476562 -2.128906 1.375 -2.171875 C 1.28125 -2.210938 1.171875 -2.234375 1.046875 -2.234375 C 0.867188 -2.234375 0.738281 -2.203125 0.65625 -2.140625 C 0.570312 -2.078125 0.53125 -1.984375 0.53125 -1.859375 C 0.53125 -1.753906 0.5625 -1.664062 0.625 -1.59375 C 0.6875 -1.53125 0.789062 -1.484375 0.9375 -1.453125 L 1.234375 -1.375 C 1.472656 -1.320312 1.644531 -1.238281 1.75 -1.125 C 1.863281 -1.007812 1.921875 -0.859375 1.921875 -0.671875 C 1.921875 -0.535156 1.890625 -0.410156 1.828125 -0.296875 C 1.765625 -0.191406 1.664062 -0.109375 1.53125 -0.046875 C 1.40625 0.00390625 1.253906 0.03125 1.078125 0.03125 Z M 1.078125 0.03125 "/></g></g></g></g></g></svg>